<svg xmlns="http://www.w3.org/2000/svg" viewBox="0 0 74.43 79.58"><defs><style>.cls-1{fill:#ffc229;}.cls-2{fill:none;stroke:#23295b;stroke-linecap:round;stroke-linejoin:round;stroke-width:1.4px;}</style></defs><title>art</title><g id="Layer_2" data-name="Layer 2"><g id="Layer_3" data-name="Layer 3"><path class="cls-1" d="M48.93,64.27a4.41,4.41,0,0,0-1.68,2,3,3,0,0,0,2,3.36,8.75,8.75,0,0,0,4.23.22l8.69-1c2.56-.3,5.22-.58,7.68.21s4.66,3,4.61,5.56a5.46,5.46,0,0,1-4.94,5,7.93,7.93,0,0,1-6.67-3.08,2.24,2.24,0,0,0-1-.87,2.09,2.09,0,0,0-1.25.16,48.35,48.35,0,0,1-8.78,2.09,13.84,13.84,0,0,1-5.29,0,5.64,5.64,0,0,1-4-3.19c-2.71-7.08,3.89-9.6,2.79-13-.75-2.34-8,.72-6.06-1.09a19.84,19.84,0,0,1,6.49-4.12c1.69-.45,4.8.56,5.46,2.52C52.11,61.66,50.82,62.79,48.93,64.27Z"/><path class="cls-1" d="M31.88,58.19C22.34,44.44,12,29.56,3.36,15.21c5-4.56,11.22-7,17.21-10.17C30.1,19,37.88,34.21,46.2,48.93A69.59,69.59,0,0,0,31.88,58.19Z"/><path class="cls-2" d="M.7,11.09C6.1,7,11.64,2.77,18.11.7l2.64,4.62c-6.47,2.07-12,6.27-17.41,10.39"/><path class="cls-2" d="M5.65,13.59,3.08,9.1"/><path class="cls-2" d="M8.93,11.09l-2.3-4"/><path class="cls-2" d="M13.52,8.16,11.09,3.9"/><path class="cls-2" d="M17.34,6.26a8.27,8.27,0,0,0-1.87-3.62"/><path class="cls-2" d="M20.93,5.3c9.36,13.81,17.14,28.63,24.89,43.4"/><path class="cls-2" d="M1,11.57Q7.57,22,14.19,32.39"/><path class="cls-2" d="M46.11,48.73a28.9,28.9,0,0,0-5.38,3.51,68.54,68.54,0,0,1-7.83,5"/><path class="cls-2" d="M44.86,49.54l2.72,5.19c-2.94,2.14-6.42,4.39-9.51,6.32a47,47,0,0,1-3.49-4.71"/><path class="cls-2" d="M46.06,52.51l-9.14,6"/><path class="cls-2" d="M39.43,54.64a40.67,40.67,0,0,1-3.76,2.48"/><path class="cls-2" d="M32.38,39.09A7.42,7.42,0,0,1,33.32,43a1.6,1.6,0,0,1-.56,1.12c-.7.49-1.64,0-2.29-.59C25.39,39.28,22,33.32,19.35,27.23c-.84-1.9-1.61-5.19,1.19-5.95,1.78-.48,2.71,1.24,3.57,2.5A95.36,95.36,0,0,1,32.38,39.09Z"/><path class="cls-2" d="M31.48,57.57,23,45.29"/><path class="cls-2" d="M32.1,28l-4.83-8.27"/><path class="cls-2" d="M12.46,12.31,7,15.93"/></g></g></svg>