<svg xmlns="http://www.w3.org/2000/svg" viewBox="0 0 672 45.5"><defs><style>.cls-1,.cls-2{fill:none;stroke-miterlimit:10;}.cls-1{stroke:#17437a;stroke-width:20px;}.cls-2{stroke:#fda931;stroke-width:11px;}</style></defs><title>boe-wave</title><g id="Layer_2" data-name="Layer 2"><g id="Layer_3" data-name="Layer 3"><path class="cls-1" d="M672,26c-19.83,0-19.83-16-39.66-16s-19.83,16-39.67,16S572.84,10,553,10s-19.83,16-39.66,16-19.84-16-39.67-16S453.85,26,434,26s-19.83-16-39.66-16-19.84,16-39.67,16S334.85,10,315,10s-19.84,16-39.67,16-19.83-16-39.67-16S215.85,26,196,26s-19.83-16-39.66-16-19.84,16-39.68,16S96.84,10,77,10"/><path class="cls-2" d="M595,40c-19.83,0-19.83-16-39.66-16s-19.83,16-39.67,16S495.84,24,476,24s-19.83,16-39.66,16-19.84-16-39.67-16S376.85,40,357,40s-19.83-16-39.66-16-19.84,16-39.67,16S257.85,24,238,24s-19.84,16-39.67,16-19.83-16-39.67-16S138.85,40,119,40,99.18,24,79.35,24,59.51,40,39.67,40,19.84,24,0,24"/></g></g></svg>