<svg xmlns="http://www.w3.org/2000/svg" viewBox="0 0 66.74 71.59"><defs><style>.cls-1,.cls-3{fill:#17437a;}.cls-1,.cls-2,.cls-4{fill-rule:evenodd;}.cls-2,.cls-5{fill:#fff;}.cls-4{fill:#fda931;}</style></defs><title>chemistry</title><g id="Layer_2" data-name="Layer 2"><g id="Layer_3" data-name="Layer 3"><path class="cls-1" d="M22.16,9.62C20.87,9,19.3,9.25,19.05,7.69c-.3-1.89-.67-3.88.45-5.58A3.2,3.2,0,0,1,21.77,1c6.54-.36,13-1.39,19.62-.92a10.81,10.81,0,0,1,2.34.4,2,2,0,0,1,1.06.85c1.69,2.93.83,6.07-2.3,7.81.23,2.8.43,5.74.71,8.66.25,2.62.5,5.25.91,7.85a10.56,10.56,0,0,0,1.14,3.62c2.07,3.59,4.31,7.09,6.47,10.63Q58.77,51.49,65.82,63C67.48,65.74,66.91,67.74,64,69a12.18,12.18,0,0,1-3.9,1c-6.21.38-12.36,1.29-18.63,1.15-7.87-.17-15.76.3-23.65.42q-6.7.11-13.41,0C1,71.41-.71,69.13.28,65.86a24.09,24.09,0,0,1,2.58-5.63c3.32-5.36,6.78-10.64,10.23-15.92,2.87-4.4,5.81-8.77,8.74-13.14a5.45,5.45,0,0,0,1.05-3.35c-.19-5.35-.32-10.7-.48-16C22.38,11.07,22.25,10.37,22.16,9.62Zm2.18.05a3.28,3.28,0,0,0-.19.77c.17,5.91.32,11.82.58,17.72a5.4,5.4,0,0,1-.94,3.55Q17.25,41.3,10.87,51c-1.71,2.59-3.22,5.32-4.81,8-1.13,1.91-2.39,3.77-3.33,5.78C1.22,68,2,69.24,5.57,69.28c4.79.06,9.58,0,14.37-.09,7.19-.11,14.37-.44,21.55-.33A167,167,0,0,0,60.6,67.63a10.91,10.91,0,0,0,2.34-.47c1.8-.59,2.16-1.65,1.19-3.24q-7.48-12.26-15-24.51c-1.86-3.07-3.53-6.26-5.51-9.24A9.53,9.53,0,0,1,42,25.52q-.5-5.85-1-11.7c-.14-1.55-.34-3.1-.5-4.63ZM42.87,2.35c-3.33-.93-17.06-.4-21.78.82a5.54,5.54,0,0,0,.24,4.49c6.8,0,13.58.34,20.34-.5,1.49-.19,2-1,1.76-2.57C43.31,3.81,43.05,3.06,42.87,2.35Z"/><path class="cls-2" d="M24.34,9.67l16.17-.48c.16,1.53.36,3.08.5,4.63q.52,5.85,1,11.7a9.53,9.53,0,0,0,1.62,4.65c2,3,3.65,6.17,5.51,9.24q7.47,12.27,15,24.51c1,1.59.61,2.65-1.19,3.24a10.91,10.91,0,0,1-2.34.47,167,167,0,0,1-19.11,1.23c-7.18-.11-14.36.22-21.55.33-4.79.07-9.58.15-14.37.09C2,69.24,1.22,68,2.73,64.77c.94-2,2.2-3.87,3.33-5.78,1.59-2.67,3.1-5.4,4.81-8q6.37-9.7,12.92-19.29a5.4,5.4,0,0,0,.94-3.55c-.26-5.9-.41-11.81-.58-17.72A3.28,3.28,0,0,1,24.34,9.67Z"/><path class="cls-2" d="M42.87,2.35c.18.71.44,1.46.56,2.24.24,1.54-.27,2.38-1.76,2.57-6.76.84-13.54.48-20.34.5a5.54,5.54,0,0,1-.24-4.49C25.81,2,39.54,1.42,42.87,2.35Z"/><path class="cls-3" d="M34.91,13.85a68,68,0,0,0,6.84-.34c.78-.1.79-1.35,0-1.25a68,68,0,0,1-6.84.34.63.63,0,0,0,0,1.25Z"/><path class="cls-3" d="M35.08,19.26c2.25,0,4.5-.23,6.75-.25a.63.63,0,0,0,0-1.25c-2.25,0-4.5.24-6.75.25a.63.63,0,0,0,0,1.25Z"/><path class="cls-3" d="M35.75,25.35c2.32.26,4.59-.36,6.91-.34a.63.63,0,0,0,0-1.25c-2.32,0-4.59.6-6.91.34-.8-.09-.8,1.16,0,1.25Z"/><path class="cls-3" d="M38.58,22.43c1.22,0,2.44-.15,3.67-.17a.63.63,0,0,0,0-1.25c-1.23,0-2.45.16-3.67.17a.63.63,0,0,0,0,1.25Z"/><path class="cls-3" d="M38.41,16.35a25.54,25.54,0,0,0,3.5-.09c.8-.05.81-1.3,0-1.25a25.54,25.54,0,0,1-3.5.09c-.8,0-.8,1.2,0,1.25Z"/><path class="cls-4" d="M42.78,34.8s2,4.07,3.52,6.58q6.12,10.07,12.29,20.1c.79,1.3.49,2.18-1,2.66a9,9,0,0,1-1.92.38,136.65,136.65,0,0,1-15.67,1c-5.89-.09-11.78.18-17.67.27-3.92.06-7.85.13-11.78.08-2.91,0-3.57-1.08-2.33-3.71C9,60.53,10,59,11,57.44c1.3-2.2,2.54-4.43,3.94-6.56q5.23-8,10.6-15.81"/><path class="cls-5" d="M28.58,46.89c3.22,0,3.22-5,0-5s-3.22,5,0,5Z"/><path class="cls-5" d="M49.08,60.14c3.22,0,3.22-5,0-5s-3.22,5,0,5Z"/><path class="cls-5" d="M19.83,62.55c4.82,0,4.83-7.5,0-7.5s-4.84,7.5,0,7.5Z"/><path class="cls-5" d="M41.25,48.22c4.82,0,4.83-7.5,0-7.5s-4.84,7.5,0,7.5Z"/><path class="cls-5" d="M35.08,57.76c4,0,4-6.25,0-6.25s-4,6.25,0,6.25Z"/></g></g></svg>