<svg xmlns="http://www.w3.org/2000/svg" viewBox="0 0 64.21 75.27"><defs><style>.cls-1,.cls-4{fill:#17437a;}.cls-1,.cls-2,.cls-3{fill-rule:evenodd;}.cls-2{fill:#fda931;}.cls-3{fill:#fff;}</style></defs><title>design</title><g id="Layer_2" data-name="Layer 2"><g id="Layer_3" data-name="Layer 3"><path class="cls-1" d="M64.21,9c-.11.75-.21,1.51-.35,2.26a49.39,49.39,0,0,0-1.3,11.94c.12,2.09-.05,4.2.77,6.21a1.29,1.29,0,0,1-.19,1.17c-1.47,1.39-1.84,3.33-2.63,5.06-1,2.29-2.19,4.52-3.27,6.79-.93,1.95-1.75,3.95-2.75,5.86-1.21,2.34-2.59,4.6-3.85,6.92-2.48,4.53-4.89,9.09-7.39,13.6-.83,1.51-1.83,2.92-2.81,4.35a4.84,4.84,0,0,1-3.39,1.83,13.69,13.69,0,0,1-9.74-1.36c-2.38-1.38-3.23-3.47-3.47-5.94a13.05,13.05,0,0,1,2.23-8.7c1-1.59,1.81-3.36,2.74-5,1.92-3.4,3.92-6.75,5.77-10.18,1.22-2.27,2.22-4.66,3.35-7q2.76-5.65,5.56-11.29c.83-1.66,1.71-3.3,2.6-4.93a2.23,2.23,0,0,1,.82-.85,93.92,93.92,0,0,0,13.73-8.54c.61-.48,1.12-1.08,1.72-1.58a16.23,16.23,0,0,1,1.41-.92Zm-17,13c-1.07,1.78-2.17,3.36-3,5.07C42,31.4,40,35.81,37.83,40.18a62.33,62.33,0,0,1-4,7.83c-1.43,2.13-2.57,4.46-3.78,6.62a16.12,16.12,0,0,0,6.63,5.64,34.39,34.39,0,0,0,8.17,2.85c2.06-3.86,4-7.63,6.07-11.37.85-1.59,1.82-3.11,2.64-4.71s1.4-3,2.12-4.56c1.93-4,3.86-8.09,5.85-12.24-1.28-.8-2.36-1.55-3.5-2.19C54.45,26,50.89,24.05,47.22,22ZM27.42,59.77c-2,3.87-2.06,4.41-1.87,7.3.21,3.13,1.46,4.77,4.72,5.81a12.13,12.13,0,0,0,6.91.14,4.53,4.53,0,0,0,2.23-1.37,33.83,33.83,0,0,0,2.43-3.84A23.25,23.25,0,0,1,27.42,59.77Zm21.33-39L61,27.53V17.18l-3.37-1.92Zm-5.22,44.3c-2.76-1.11-5.37-2.13-8-3.2a16,16,0,0,1-6.4-5.24c-.78.77-.91,1.38-.29,2.05a18.58,18.58,0,0,0,1.3,1.48,20.76,20.76,0,0,0,6.46,4.19,46.26,46.26,0,0,0,5.17,1.49C42.46,66,43.27,66.18,43.53,65.09Z"/><path class="cls-2" d="M47.22,22c3.67,2.06,7.23,4,10.77,6.06,1.14.64,2.22,1.39,3.5,2.19-2,4.15-3.92,8.19-5.85,12.24C54.92,44,54.29,45.55,53.52,47s-1.79,3.12-2.64,4.71c-2,3.74-4,7.51-6.07,11.37a34.39,34.39,0,0,1-8.17-2.85A16.12,16.12,0,0,1,30,54.63c1.21-2.16,2.35-4.49,3.78-6.62a62.33,62.33,0,0,0,4-7.83C40,35.81,42,31.4,44.2,27.06,45.05,25.35,46.15,23.77,47.22,22Z"/><path class="cls-3" d="M27.42,59.77a23.25,23.25,0,0,0,14.42,8,33.83,33.83,0,0,1-2.43,3.84A4.53,4.53,0,0,1,37.18,73a12.13,12.13,0,0,1-6.91-.14c-3.26-1-4.51-2.68-4.72-5.81C25.36,64.18,25.47,63.64,27.42,59.77Z"/><path class="cls-3" d="M48.75,20.79l8.88-5.53L61,17.18V27.53Z"/><path class="cls-3" d="M43.53,65.09c-.26,1.09-1.07.93-1.73.77a46.26,46.26,0,0,1-5.17-1.49,20.76,20.76,0,0,1-6.46-4.19,18.58,18.58,0,0,1-1.3-1.48c-.62-.67-.49-1.28.29-2.05a16,16,0,0,0,6.4,5.24C38.16,63,40.77,64,43.53,65.09Z"/><path class="cls-4" d="M51.43,23.89c-3.41,5.94-7,11.78-10,17.93-2.84,5.77-5.32,11.68-9.17,16.88-.48.64.6,1.27,1.07.63,3.85-5.2,6.35-11.11,9.18-16.88,3-6.16,6.59-12,10-17.93a.63.63,0,0,0-1.08-.63Z"/><path class="cls-4" d="M56.82,27.14c-1.43,6.12-6.4,12.7-9.58,18.1s-6.82,10.55-9.15,16.41c-.3.75.91,1.07,1.21.33C42,55.1,46.57,49,50.2,42.62c2.68-4.72,6.58-9.83,7.83-15.15.18-.78-1-1.12-1.21-.33Z"/><path class="cls-1" d="M8.31,40.74a1.13,1.13,0,0,1,.16-1c1.31-1.24,1.64-3,2.34-4.5.92-2,1.94-4,2.9-6,.83-1.73,1.55-3.51,2.44-5.2,1.08-2.08,2.3-4.09,3.42-6.14,2.19-4,4.33-8.07,6.55-12.07.74-1.34,1.64-2.6,2.5-3.86a4.29,4.29,0,0,1,3-1.63A12.12,12.12,0,0,1,40.27,1.5a6.24,6.24,0,0,1,3.09,5.27,11.63,11.63,0,0,1-2,7.72c-.92,1.42-1.61,3-2.44,4.46-1.7,3-3.48,6-5.12,9-1.08,2-2,4.14-3,6.2q-2.45,5-4.94,10-1.11,2.2-2.31,4.38a2,2,0,0,1-.72.75Zm14.3,6.55c.95-1.58,1.92-3,2.68-4.5,1.93-3.86,3.76-7.77,5.65-11.64a55.64,55.64,0,0,1,3.58-6.95c1.27-1.9,2.28-4,3.36-5.88a14.33,14.33,0,0,0-5.89-5,30.24,30.24,0,0,0-7.25-2.53c-1.82,3.43-3.59,6.77-5.38,10.1-.76,1.4-1.62,2.75-2.35,4.17s-1.25,2.71-1.88,4.05C13.42,32.69,11.7,36.28,9.94,40c1.13.72,2.09,1.38,3.1,1.95C16.18,43.7,19.34,45.46,22.61,47.29ZM40.18,13.76c1.73-3.44,1.83-3.92,1.65-6.48C41.65,4.49,40.54,3,37.65,2.12A10.7,10.7,0,0,0,31.51,2a4,4,0,0,0-2,1.21,29,29,0,0,0-2.16,3.41A20.54,20.54,0,0,1,40.18,13.76ZM25.88,9c2.45,1,4.77,1.88,7.07,2.84a14,14,0,0,1,5.68,4.64c.7-.68.81-1.22.26-1.82-.39-.43-.73-.92-1.16-1.31A18.37,18.37,0,0,0,32,9.67a39.57,39.57,0,0,0-4.59-1.32C26.83,8.2,26.11,8.06,25.88,9Z"/><path class="cls-2" d="M22.61,47.29c-3.27-1.83-6.43-3.59-9.57-5.38-1-.57-2-1.23-3.1-1.95,1.76-3.68,3.48-7.27,5.19-10.86.63-1.34,1.2-2.73,1.88-4.05s1.59-2.77,2.35-4.17c1.79-3.33,3.56-6.67,5.38-10.1A30.24,30.24,0,0,1,32,13.31a14.33,14.33,0,0,1,5.89,5c-1.08,1.91-2.09,4-3.36,5.88a55.64,55.64,0,0,0-3.58,7c-1.89,3.87-3.72,7.78-5.65,11.64C24.53,44.3,23.56,45.71,22.61,47.29Z"/><path class="cls-3" d="M40.18,13.76a20.54,20.54,0,0,0-12.8-7.14,29,29,0,0,1,2.16-3.41,4,4,0,0,1,2-1.21,10.7,10.7,0,0,1,6.14.12c2.89.92,4,2.37,4.18,5.16C42,9.84,41.91,10.32,40.18,13.76Z"/><path class="cls-3" d="M25.88,9c.23-1,.95-.84,1.53-.69A39.57,39.57,0,0,1,32,9.67a18.37,18.37,0,0,1,5.73,3.72c.43.39.77.88,1.16,1.31.55.6.44,1.14-.26,1.82A14,14,0,0,0,33,11.88C30.65,10.92,28.33,10,25.88,9Z"/><path class="cls-4" d="M23,48.4a.74.74,0,0,0-.91-.55c-.3-.37-1.08-.26-.91.3,2.82,9.25-9.67,17.64-19,18.57,1.46-2.58,1.69-5.42,1.6-8.56-.17-5.62-1.25-15.88,6-17a.49.49,0,0,0,.26-.13h.06c.65.18.39-.18-.09-.66-2-2-5.75,2.28-6.86,5.6s-.68,7.31-.52,11.15c0,3.29-.16,6.42-1.19,8.71l0,.06a2.44,2.44,0,0,1-.14.28A9.29,9.29,0,0,1,.14,67.78c-.29.31-.11,1,.37.94C10.44,67.34,25,59.4,23,48.4Z"/></g></g></svg>