<svg xmlns="http://www.w3.org/2000/svg" viewBox="0 0 52.31 60.16"><defs><style>.cls-1,.cls-3{fill:#17437a;}.cls-1,.cls-2,.cls-4{fill-rule:evenodd;}.cls-2{fill:#6eccd4;}.cls-4{fill:#f6921e;}</style></defs><title>language</title><g id="Layer_2" data-name="Layer 2"><g id="Layer_3" data-name="Layer 3"><path class="cls-1" d="M6.86,30.17c-.89,0-1.59,0-2.29,0C2.35,30.05,1.2,29.18.63,27a14,14,0,0,1-.47-3.16C0,18.72-.24,13.56.42,8.42.58,7.2.78,6,1,4.78,1.42,3,2.82,2.06,4.36,1.37a14.09,14.09,0,0,1,6.8-1,19.88,19.88,0,0,0,3.7,0,68.39,68.39,0,0,1,11-.3c2.6.06,5.21,0,7.81,0,2.31,0,4.61.17,6.92.34,3.18.23,4.84,2.08,5.05,5.35.2,2.94.21,5.9.16,8.86-.06,3.19-.29,6.39-.46,9.58a6.14,6.14,0,0,1-.11,1.06c-.58,2.61-1.59,4.29-4.84,4.55-3.64.3-7.3.43-11,.64-.88.06-1.77.17-2.65.2-2.9.08-5.8.12-8.7.19-.93,0-1.87.08-2.92.13a6.4,6.4,0,0,1-1.42,4.57,7.17,7.17,0,0,1-4.29,2.67c-1.16.23-2.32.45-3.5.58s-1.43-.35-1-1.34c.35-.75.78-1.47,1.14-2.21A9.47,9.47,0,0,0,6.86,30.17Zm.42,6.72a7.35,7.35,0,0,0,4.12-1.21C13,34.47,14.26,33,13.67,30.74c-.23-.9.18-1.31,1.15-1.31,1.83,0,3.66.13,5.49.07,6-.22,11.93-.37,17.88-.93.88-.08,1.77-.11,2.65-.24a3.34,3.34,0,0,0,2.87-2.56,8.36,8.36,0,0,0,.36-1.91c.19-5.2.38-10.4.51-15.61a13.81,13.81,0,0,0-.31-3A3.26,3.26,0,0,0,41,2.2c-2.06-.18-4.13-.33-6.19-.36-3.26-.05-6.52,0-9.77,0s-6.5.14-9.75.2c-1.42,0-2.84,0-4.26,0a36.39,36.39,0,0,0-4.05.1C4.14,2.57,2.51,3.94,2,6.37a35.5,35.5,0,0,0-.58,4.92c-.12,2.41-.14,4.83-.12,7.25,0,2.19.1,4.38.23,6.56.16,2.55,1.15,3.49,3.64,3.6.77,0,1.55,0,2.31,0A1,1,0,0,1,8.57,30c-.35,2-.73,3.93-1.1,5.89C7.42,36.17,7.37,36.45,7.28,36.89Z"/><path class="cls-2" d="M7.28,36.89c.09-.44.14-.72.19-1,.37-2,.75-3.92,1.1-5.89a1,1,0,0,0-1.07-1.3c-.76-.05-1.54,0-2.31,0-2.49-.11-3.48-1.05-3.64-3.6-.13-2.18-.22-4.37-.23-6.56,0-2.42,0-4.84.12-7.25A35.5,35.5,0,0,1,2,6.37c.49-2.43,2.12-3.8,4.91-4.15A36.39,36.39,0,0,1,11,2.12c1.42,0,2.84,0,4.26,0,3.25-.06,6.5-.16,9.75-.2s6.51-.1,9.77,0c2.06,0,4.13.18,6.19.36a3.26,3.26,0,0,1,3.32,3.06,13.81,13.81,0,0,1,.31,3c-.13,5.21-.32,10.41-.51,15.61a8.36,8.36,0,0,1-.36,1.91,3.34,3.34,0,0,1-2.87,2.56c-.88.13-1.77.16-2.65.24-5.95.56-11.91.71-17.88.93-1.83.06-3.66-.08-5.49-.07-1,0-1.38.41-1.15,1.31.59,2.3-.64,3.73-2.27,4.94A7.35,7.35,0,0,1,7.28,36.89Z"/><path class="cls-3" d="M8.32,10.68c10.13,0,20.26.28,30.38.29a.63.63,0,0,0,0-1.25c-10.12,0-20.25-.27-30.38-.29a.63.63,0,0,0,0,1.25Z"/><path class="cls-3" d="M8.47,15.48c10,0,20.06-.27,30.09-.29a.63.63,0,0,0,0-1.25c-10,0-20.06.27-30.09.29a.63.63,0,0,0,0,1.25Z"/><path class="cls-3" d="M8.47,20.28C18.64,20.26,28.82,20,39,20a.63.63,0,0,0,0-1.25c-10.18,0-20.36.27-30.53.29a.63.63,0,0,0,0,1.25Z"/><path class="cls-1" d="M47.61,54.22c.61,0,1.09,0,1.57,0a2.54,2.54,0,0,0,2.7-2.15,9.23,9.23,0,0,0,.31-2.16A69.09,69.09,0,0,0,52,39.34c-.11-.83-.24-1.67-.42-2.49a3.41,3.41,0,0,0-2.28-2.34,9.82,9.82,0,0,0-4.65-.66,12.58,12.58,0,0,1-2.53,0,47.25,47.25,0,0,0-7.52-.2c-1.78,0-3.57,0-5.35,0-1.58,0-3.15.11-4.73.23-2.18.16-3.31,1.42-3.46,3.66-.13,2-.14,4-.11,6.06.05,2.19.2,4.37.32,6.56a4.28,4.28,0,0,0,.07.72c.4,1.78,1.09,2.94,3.31,3.12,2.5.2,5,.29,7.5.44.61,0,1.21.11,1.82.13l5.95.13,2,.09a4.41,4.41,0,0,0,1,3.13,5,5,0,0,0,2.93,1.83c.8.15,1.6.3,2.4.39s1-.24.66-.92c-.24-.51-.53-1-.77-1.51A6.45,6.45,0,0,1,47.61,54.22Zm-.29,4.6A5,5,0,0,1,44.51,58c-1.12-.83-2-1.8-1.56-3.38.16-.61-.12-.9-.78-.9-1.26,0-2.51.09-3.76,0-4.08-.15-8.17-.25-12.24-.63-.6-.06-1.21-.08-1.81-.17a2.28,2.28,0,0,1-2-1.75,5.34,5.34,0,0,1-.25-1.3c-.13-3.56-.26-7.12-.35-10.69a9.36,9.36,0,0,1,.21-2,2.24,2.24,0,0,1,2.27-2.1c1.41-.12,2.83-.23,4.24-.25,2.23,0,4.46,0,6.69,0s4.45.09,6.67.14c1,0,1.94,0,2.91,0a23.19,23.19,0,0,1,2.77.07,3.44,3.44,0,0,1,3.36,2.84,23.7,23.7,0,0,1,.4,3.36c.08,1.65.1,3.31.09,5,0,1.49-.08,3-.17,4.48-.1,1.74-.78,2.39-2.49,2.46-.52,0-1,0-1.58,0a.7.7,0,0,0-.73.89c.24,1.35.5,2.69.75,4C47.23,58.33,47.27,58.52,47.32,58.82Z"/><path class="cls-4" d="M47.32,58.82c0-.3-.09-.49-.13-.68-.25-1.34-.51-2.68-.75-4a.7.7,0,0,1,.73-.89c.53,0,1.06,0,1.58,0,1.71-.07,2.39-.72,2.49-2.46.09-1.49.15-3,.17-4.48,0-1.66,0-3.32-.09-5a23.7,23.7,0,0,0-.4-3.36,3.44,3.44,0,0,0-3.36-2.84A23.19,23.19,0,0,0,44.79,35c-1,0-1.94,0-2.91,0-2.22,0-4.45-.11-6.67-.14s-4.46-.07-6.69,0c-1.41,0-2.83.13-4.24.25A2.24,2.24,0,0,0,22,37.18a9.36,9.36,0,0,0-.21,2c.09,3.57.22,7.13.35,10.69a5.34,5.34,0,0,0,.25,1.3,2.28,2.28,0,0,0,2,1.75c.6.09,1.21.11,1.81.17,4.07.38,8.16.48,12.24.63,1.25,0,2.5,0,3.76,0,.66,0,.94.29.78.9-.4,1.58.44,2.55,1.56,3.38A5,5,0,0,0,47.32,58.82Z"/><path class="cls-3" d="M46.61,39.83c-6.93,0-13.86.19-20.79.2a.63.63,0,0,0,0,1.25c6.93,0,13.86-.18,20.79-.2a.63.63,0,0,0,0-1.25Z"/><path class="cls-3" d="M46.51,43.12c-6.86,0-13.73-.19-20.59-.2a.63.63,0,0,0,0,1.25c6.86,0,13.73.18,20.59.2a.63.63,0,0,0,0-1.25Z"/><path class="cls-3" d="M46.51,46.4c-7,0-13.92-.19-20.89-.2a.63.63,0,0,0,0,1.25c7,0,13.93.18,20.89.2a.63.63,0,0,0,0-1.25Z"/></g></g></svg>