<svg xmlns="http://www.w3.org/2000/svg" viewBox="0 0 76.51 71.61"><defs><style>.cls-1,.cls-3{fill:#17437a;}.cls-1,.cls-2,.cls-4{fill-rule:evenodd;}.cls-2{fill:#fff;}.cls-4{fill:#fda931;}</style></defs><title>math</title><g id="Layer_2" data-name="Layer 2"><g id="Layer_3" data-name="Layer 3"><path class="cls-1" d="M25.39,71.49c-1.47-.31-1.7-.89-1-2.13,1.95-3.43,3.85-6.89,5.79-10.33,2.56-4.53,5.24-9,7.7-13.59,2.37-4.44,4.51-9,6.76-13.49,1.84-3.69,3.72-7.36,5.52-11.07C51.58,18,52.94,15,54.27,12,56,8.26,57.59,4.47,59.26.7c.39-.88,1.2-.95,1.67-.11a6.41,6.41,0,0,1,.49,1.63q1.2,5,2.35,10c.44,1.95.8,3.92,1.23,5.88.7,3.12,1.43,6.24,2.15,9.36.64,2.78,1.33,5.56,1.92,8.36,1.22,5.76,2.37,11.55,3.6,17.31,1,4.93,2.14,9.84,3.24,14.75.15.67.44,1.31.57,2,.19,1-.41,1.57-1.45,1.52-2.57-.11-5.14-.22-7.71-.26-3.88-.07-7.76-.08-11.64-.1a22,22,0,0,0-2.57.07c-5.37.56-10.75.23-16.13.32l-10.1.17C26.37,71.61,25.85,71.53,25.39,71.49Zm.72-1.57,48.5-.46c-2.32-11.12-4.42-22.18-7-33.13S63,14.27,59.93,3.05C50.09,26.24,38.5,48.1,26.11,69.92Z"/><path class="cls-2" d="M26.11,69.92C38.5,48.1,50.09,26.24,59.93,3.05c3.09,11.22,5.14,22.31,7.7,33.28s4.66,22,7,33.13Zm15.15-8.65c1,0,1.54.07,2.07,0,.85-.07,1.7-.28,2.55-.29,3.82,0,7.65,0,11.47,0,1.43,0,2.85.09,4.27,0,1.76-.09,1.88-.28,1.69-2-.07-.63-.19-1.25-.29-1.87-.5-3.16-1.05-6.31-1.49-9.47-.58-4.19-1-8.38-1.6-12.57-.22-1.64-.62-3.25-.89-4.89-.16-1.05-.23-2.12-.34-3.14-2.07-.2-2.13-.2-2.91,1.54-1.52,3.45-3,6.9-4.48,10.39-2.58,6.29-5.42,12.45-8.37,18.57C42.43,58.7,41.94,59.78,41.26,61.27Z"/><path class="cls-1" d="M41.26,61.27c.68-1.49,1.17-2.57,1.68-3.63,3-6.12,5.79-12.28,8.37-18.57,1.43-3.49,3-6.94,4.48-10.39.78-1.74.84-1.74,2.91-1.54.11,1,.18,2.09.34,3.14.27,1.64.67,3.25.89,4.89.57,4.19,1,8.38,1.6,12.57.44,3.16,1,6.31,1.49,9.47.1.62.22,1.24.29,1.87.19,1.67.07,1.86-1.69,2-1.42.08-2.84,0-4.27,0-3.82,0-7.65,0-11.47,0-.85,0-1.7.22-2.55.29C42.8,61.34,42.26,61.28,41.26,61.27ZM57.49,29.18l-.44-.1L43.72,59.59l17.87-.05C60.22,49.34,58.86,39.26,57.49,29.18Z"/><path class="cls-3" d="M59.1,14.94c1.26-.07,2.5-.33,3.76-.41.8,0,.81-1.3,0-1.25-1.26.08-2.5.34-3.76.41-.8.05-.8,1.3,0,1.25Z"/><path class="cls-3" d="M60.3,21.19a33.3,33.3,0,0,1,3.86-.32.63.63,0,0,0,0-1.25A37,37,0,0,0,60,20c-.79.12-.45,1.32.34,1.21Z"/><path class="cls-3" d="M61.14,28.06A30.23,30.23,0,0,1,66,28c.8.06.8-1.19,0-1.25a30.23,30.23,0,0,0-4.85.11c-.79.06-.8,1.31,0,1.25Z"/><path class="cls-3" d="M62.8,34.73c1.58-.27,3.18,0,4.75-.29.79-.13.46-1.33-.33-1.2-1.57.26-3.17,0-4.75.28-.79.13-.45,1.34.33,1.21Z"/><path class="cls-3" d="M63.28,41.35c1.83-.18,3.66-.31,5.5-.37a.63.63,0,0,0,0-1.25c-1.84.06-3.67.19-5.5.37-.79.07-.8,1.32,0,1.25Z"/><path class="cls-3" d="M65.31,47.16c1.72.18,3.45.23,5.18.28a.63.63,0,0,0,0-1.25c-1.73,0-3.46-.1-5.18-.28-.8-.08-.79,1.18,0,1.25Z"/><path class="cls-3" d="M65.57,53.07A29.56,29.56,0,0,0,71.44,53c.79-.07.8-1.32,0-1.25a29.56,29.56,0,0,1-5.87.12c-.8-.08-.8,1.17,0,1.25Z"/><path class="cls-3" d="M66.83,59.43c2,.33,3.84-.21,5.81-.31.8,0,.8-1.29,0-1.25-1.83.09-3.64.66-5.47.35-.79-.13-1.13,1.08-.34,1.21Z"/><path class="cls-3" d="M67.63,65.49a26.9,26.9,0,0,0,6.71.09c.8,0,.81-1.3,0-1.25a25.7,25.7,0,0,1-6.38,0c-.78-.15-1.12,1-.33,1.21Z"/><path class="cls-3" d="M60.89,18a6.86,6.86,0,0,1,2.84-.31c.8.09.8-1.16,0-1.25a7.76,7.76,0,0,0-3.17.35c-.77.24-.44,1.45.33,1.21Z"/><path class="cls-3" d="M62.57,24.52a16.37,16.37,0,0,0,2.62,0c.8-.05.81-1.3,0-1.25a16.37,16.37,0,0,1-2.62,0c-.8-.1-.79,1.15,0,1.25Z"/><path class="cls-3" d="M63.89,31.3c1,0,1.93.11,2.89.08.81,0,.81-1.28,0-1.25-1,0-1.93-.08-2.89-.08a.63.63,0,0,0,0,1.25Z"/><path class="cls-3" d="M64.31,37.57A11,11,0,0,0,68,38c.8-.05.8-1.3,0-1.25a10.36,10.36,0,0,1-3.37-.37.62.62,0,0,0-.33,1.2Z"/><path class="cls-3" d="M66.62,44A18,18,0,0,0,69.56,44c.8,0,.8-1.3,0-1.25a18,18,0,0,1-2.94.06c-.8-.09-.79,1.16,0,1.25Z"/><path class="cls-3" d="M67.73,50c.92.1,1.84,0,2.76,0s.79-1.18,0-1.25-1.84.06-2.76,0-.8,1.17,0,1.25Z"/><path class="cls-3" d="M68.76,56.29a13.17,13.17,0,0,0,3.2,0c.79-.1.8-1.35,0-1.25a13.17,13.17,0,0,1-3.2,0c-.8-.09-.79,1.16,0,1.25Z"/><path class="cls-3" d="M70.32,62.79a7.78,7.78,0,0,1,2.8-.18c.8.1.79-1.15,0-1.25a8.93,8.93,0,0,0-3.13.22c-.78.19-.45,1.4.33,1.21Z"/><path class="cls-1" d="M52,33.39c.81,0,1.69,0,2.56.11A2.41,2.41,0,0,1,57.09,36c0,1.89-.09,3.78-.13,5.67,0,.74,0,1.48,0,2.27-.5.75-1.31.76-2.15.76-3.86,0-7.72,0-11.58,0-5.43.06-10.87.23-16.3.23s-11-.15-16.5-.2c-2.47,0-4.93.07-7.4.08-.93,0-1.86-.07-3-.12.08-3.8.61-7.28.82-10.77,1.35-1.08,3-.54,4.27-.91.44-2.33.7-4.59,1.32-6.75a38.21,38.21,0,0,1,2.44-6.15c1.68-3.44,4.86-5.24,8.11-6.86A28,28,0,0,1,29.43,10.5a29,29,0,0,1,6.23.31,19.74,19.74,0,0,1,13.65,9.65,18.36,18.36,0,0,1,2,6.68C51.61,29.13,51.78,31.14,52,33.39Zm-50,9.71c17.63.19,35.15.29,52.69-.27.89-2.52.43-5,.37-7.48-.57-.07-1.07-.15-1.56-.18s-1.15,0-1.71-.09a2,2,0,0,1-2-1.95c0-.43.07-.88,0-1.32-.24-4.2-.75-8.3-3.34-11.87a17.07,17.07,0,0,0-12.94-7.32,53.28,53.28,0,0,0-7.58.06,23.57,23.57,0,0,0-11.65,4.2,11.16,11.16,0,0,0-4.11,4.37A26.21,26.21,0,0,0,7.2,32.49c0,1.6-.37,1.94-2,2.09-.87.07-1.74.07-2.78.12C2.29,37.5,2.18,40.2,2.05,43.1Z"/><path class="cls-4" d="M2.05,43.1c.13-2.9.24-5.6.36-8.4,1-.05,1.91-.05,2.78-.12,1.64-.15,2-.49,2-2.09a26.21,26.21,0,0,1,3.11-11.24,11.16,11.16,0,0,1,4.11-4.37,23.57,23.57,0,0,1,11.65-4.2,53.28,53.28,0,0,1,7.58-.06,17.07,17.07,0,0,1,12.94,7.32c2.59,3.57,3.1,7.67,3.34,11.87,0,.44-.07.89,0,1.32a2,2,0,0,0,2,1.95c.56.06,1.14,0,1.71.09s1,.11,1.56.18c.06,2.52.52,5-.37,7.48C37.2,43.39,19.68,43.29,2.05,43.1ZM42.8,35.33c.19-.62.27-.85.33-1.1a3.66,3.66,0,0,0,.1-.74A17.15,17.15,0,0,0,40.5,23.6,9.54,9.54,0,0,0,35,19.55a21.77,21.77,0,0,0-11.63-.21c-4,1.1-7,3.6-8.19,7.69a27.78,27.78,0,0,0-.71,6.19c-.08,1.42.55,1.91,2,1.92,2.72,0,5.43,0,8.15,0,3.6,0,7.2-.12,10.8-.1C37.82,35.05,40.27,35.22,42.8,35.33Z"/><path class="cls-1" d="M42.8,35.33c-2.53-.11-5-.28-7.43-.3-3.6,0-7.2.08-10.8.1-2.72,0-5.43,0-8.15,0-1.43,0-2.06-.5-2-1.92A27.78,27.78,0,0,1,15.15,27c1.18-4.09,4.17-6.59,8.19-7.69A21.77,21.77,0,0,1,35,19.55,9.54,9.54,0,0,1,40.5,23.6a17.15,17.15,0,0,1,2.73,9.89,3.66,3.66,0,0,1-.1.74C43.07,34.48,43,34.71,42.8,35.33Zm-1.71-2.07a13.43,13.43,0,0,0-2-8,7.33,7.33,0,0,0-4.81-3.72,20.79,20.79,0,0,0-9.38-.56c-5.61,1.13-9.44,5.78-8.53,12.49Z"/><path class="cls-3" d="M7.15,38.78c-.27,1.49,0,3-.25,4.48-.13.79,1.07,1.12,1.21.33.26-1.49,0-3,.24-4.48.15-.78-1.06-1.12-1.2-.33Z"/><path class="cls-3" d="M19.81,39.45c.14,1.41.52,2.79.67,4.2.08.8,1.33.8,1.25,0-.15-1.41-.53-2.79-.67-4.2-.08-.79-1.33-.8-1.25,0Z"/><path class="cls-3" d="M33.55,39.88c.27,1.28.4,2.58.56,3.87.1.79,1.35.8,1.25,0-.17-1.4-.31-2.81-.6-4.2-.17-.79-1.37-.45-1.21.33Z"/><path class="cls-3" d="M47.28,39.44c0,1.32.16,2.64.32,4,.1.79,1.35.8,1.25,0-.16-1.32-.28-2.64-.32-4,0-.8-1.28-.81-1.25,0Z"/><path class="cls-3" d="M13.16,40.9c.11,1,.12,2,.28,3,.12.79,1.33.46,1.2-.33s-.13-1.78-.23-2.67-1.33-.8-1.25,0Z"/><path class="cls-3" d="M26.18,41a9.45,9.45,0,0,1,.36,2.7.63.63,0,0,0,1.25,0,10.81,10.81,0,0,0-.4-3,.63.63,0,0,0-1.21.34Z"/><path class="cls-3" d="M39.79,40.24A21.16,21.16,0,0,1,40.26,44c0,.8,1.28.81,1.25,0a23.87,23.87,0,0,0-.51-4c-.17-.79-1.37-.45-1.21.33Z"/><path class="cls-3" d="M9.84,41.42a19.46,19.46,0,0,1,0,2.16.63.63,0,0,0,1.25,0,19.46,19.46,0,0,0,0-2.16c-.08-.8-1.33-.81-1.25,0Z"/><path class="cls-3" d="M16.7,41.31A18.88,18.88,0,0,1,17,43.56a.63.63,0,0,0,1.25,0A18.88,18.88,0,0,0,18,41.31c-.1-.79-1.35-.8-1.25,0Z"/><path class="cls-3" d="M23.19,41.4a16.46,16.46,0,0,0,.16,2.22c.09.79,1.35.8,1.25,0a16.46,16.46,0,0,1-.16-2.22c0-.81-1.22-.8-1.25,0Z"/><path class="cls-3" d="M29.84,41.33,30,43.86c0,.8,1.3.81,1.25,0l-.17-2.53c-.05-.8-1.3-.81-1.25,0Z"/><path class="cls-3" d="M36.54,41.33a22.1,22.1,0,0,1,.61,2.77c.11.8,1.31.46,1.21-.33A21.74,21.74,0,0,0,37.74,41a.62.62,0,0,0-1.2.33Z"/><path class="cls-3" d="M43.55,41.06A8,8,0,0,1,44,43.42a.63.63,0,0,0,1.25,0,9.47,9.47,0,0,0-.5-2.69.63.63,0,0,0-1.21.33Z"/><path class="cls-3" d="M50.91,40.69a8.51,8.51,0,0,1,.29,2.93.63.63,0,0,0,1.25,0,9.39,9.39,0,0,0-.33-3.26c-.27-.76-1.48-.43-1.21.33Z"/></g></g></svg>