<svg xmlns="http://www.w3.org/2000/svg" viewBox="0 0 54.22 75.16"><defs><style>.cls-1,.cls-2{fill:#17437a;}.cls-1{fill-rule:evenodd;}.cls-3{fill:#fda931;}.cls-4{fill:#6eccd4;}</style></defs><title>medical</title><g id="Layer_2" data-name="Layer 2"><g id="Layer_3" data-name="Layer 3"><path class="cls-1" d="M23,54.05a19.55,19.55,0,0,1,3.57,10c.27,3.77-1.14,7.05-2.86,10.25-.49.93-1.45,1-2.57.47s-1.18-.92-.63-2.21,1.09-2.25,1.55-3.4a13.67,13.67,0,0,0-3.33-14.87c-3.75.47-7.6.75-11,3-2,1.33-3.16,3.25-4.39,5.18a1.58,1.58,0,0,1-2.59.41A1.66,1.66,0,0,1,.25,60.7c1.29-2.21,2.61-4.36,4.85-5.86a17.5,17.5,0,0,1,6.76-3.07c1.2-.2,2.42-.28,3.87-.44-.66-.89-1.13-1.55-1.64-2.19-2.49-3.15-2.74-6.7-2-10.47.87-4.18,3.47-7.19,6.59-9.8a19.07,19.07,0,0,1,5.71-3.74l3.48-1.23c-.65-1-1.23-1.79-1.78-2.65-1.91-3-3.05-6.18-1.7-9.66,1.24-3.23,2.79-6.34,4.22-9.49a4.5,4.5,0,0,1,.61-.84C30.18.05,31-.29,31.61.24a2.81,2.81,0,0,1,.3,3.07c-2.09,2.86-3.07,6.22-4.39,9.42-1,2.41-.34,4.65.9,6.76a30.16,30.16,0,0,0,2.09,2.85,2.32,2.32,0,0,0,2,.95c2.56.09,5.12.31,7.68.38a6.72,6.72,0,0,0,5.15-2.33c2.34-2.45,3.78-5.46,5.32-8.41a11.79,11.79,0,0,0,.53-1.14c.29-.8.74-1.38,1.68-1.14s1.23,1,1.37,1.89a1.54,1.54,0,0,1-.13.81c-1.79,3.92-3.56,7.84-6.74,10.92a8.9,8.9,0,0,1-8.18,2.5,8.49,8.49,0,0,0-5,.23c.53.9,1,1.8,1.56,2.64a15,15,0,0,1,2.26,10.93A16.27,16.27,0,0,1,34.29,49a13.16,13.16,0,0,1-8.44,4.53C25,53.7,24.12,53.86,23,54.05Zm7.4-27.16c-1.29.42-2.3.67-3.25,1.05a19.36,19.36,0,0,0-11.28,11A8.56,8.56,0,0,0,17,47.74c1.65,2.31,3.57,3.55,6.47,2.82.53-.13,1.11-.09,1.65-.2a9.94,9.94,0,0,0,5.09-2.2c4-3.76,6-10.39,3.39-15.62C32.63,30.69,31.53,28.92,30.38,26.89Z"/><path class="cls-2" d="M30.19,5c6.86,3.1,14.14,5.68,20.78,9.23.71.38,1.35-.69.63-1.07C44.94,9.54,37.69,7,30.82,3.87c-.73-.33-1.36.75-.63,1.08Z"/><path class="cls-2" d="M28.29,8.15c2.88,2,6.52,3,9.8,4.18,4,1.43,7.73,3.32,11.65,4.9.75.31,1.07-.9.33-1.2-3.48-1.41-6.74-3.15-10.29-4.42S32.07,9.26,28.92,7.07c-.66-.46-1.29.62-.63,1.08Z"/><path class="cls-2" d="M27.35,11.19a34.14,34.14,0,0,0,9.41,4.65C40.53,17.21,44.13,19,48,20.2c.77.24,1.1-1,.33-1.21-3.41-1-6.62-2.68-10-3.92-3.64-1.35-7.22-2.57-10.33-5-.64-.48-1.27.6-.64,1.08Z"/><path class="cls-2" d="M26.05,14.67c5.64,4.13,13.1,5.28,19.14,8.7a.62.62,0,0,0,.63-1.07c-6-3.44-13.5-4.58-19.14-8.71-.65-.48-1.28.61-.63,1.08Z"/><path class="cls-2" d="M26,18.64a37.25,37.25,0,0,0,7.09,3.47c2.65,1,5.67,1.57,8.17,2.89.71.37,1.34-.7.63-1.08a47.41,47.41,0,0,0-6.51-2.3,41.07,41.07,0,0,1-8.74-4.05c-.68-.44-1.31.64-.64,1.07Z"/><path class="cls-2" d="M25.5,28.34a86.65,86.65,0,0,1,8.4,3.31c.72.36,1.36-.72.63-1.08a86.8,86.8,0,0,0-8.7-3.43c-.75-.28-1.08.92-.33,1.2Z"/><path class="cls-2" d="M21.47,30.57a27.66,27.66,0,0,0,6.36,2.06c2.51.6,4.86,1.62,7.35,2.27a.62.62,0,0,0,.34-1.2c-2.21-.58-4.29-1.51-6.5-2.07a31.53,31.53,0,0,1-6.92-2.14c-.71-.37-1.35.71-.63,1.08Z"/><path class="cls-2" d="M18.76,33c5.15,2.86,11.44,3.25,16.45,6.32.69.42,1.32-.66.64-1.08-5-3.07-11.32-3.46-16.46-6.32A.63.63,0,0,0,18.76,33Z"/><path class="cls-2" d="M15.77,36.72c5.9,3.53,12.51,4.87,18.77,7.46.74.31,1.07-.9.33-1.2-6.15-2.56-12.65-3.86-18.47-7.34a.63.63,0,0,0-.63,1.08Z"/><path class="cls-2" d="M14.12,41.15c6,2.78,12.47,4.39,18.56,6.94.74.31,1.06-.9.33-1.21-6-2.5-12.34-4.08-18.26-6.81-.72-.34-1.36.74-.63,1.08Z"/><path class="cls-2" d="M14.07,45.48c2.34,1.51,5.21,2.26,7.72,3.45,2,.93,4.42,1.42,6.22,2.58.67.44,1.3-.64.63-1.08-1.82-1.18-4.26-1.66-6.22-2.58-2.49-1.17-5.43-2-7.72-3.45-.68-.43-1.3.65-.63,1.08Z"/><path class="cls-2" d="M12,55.25a39.78,39.78,0,0,0,10.64,3.81c.79.19,1.12-1,.34-1.21a38.26,38.26,0,0,1-10.35-3.68A.63.63,0,0,0,12,55.25Z"/><path class="cls-2" d="M7.52,56.77a46.26,46.26,0,0,0,7.54,3.37c3,1.12,5.94,2.65,9.09,3.38.78.18,1.11-1,.33-1.21-2.8-.64-5.38-2-8.06-3a51.06,51.06,0,0,1-8.27-3.62.63.63,0,0,0-.63,1.08Z"/><path class="cls-2" d="M4.48,59a146,146,0,0,0,20,8.14c.76.25,1.09-1,.33-1.2a146.76,146.76,0,0,1-19.72-8c-.72-.36-1.35.72-.63,1.08Z"/><path class="cls-2" d="M2.36,61.46C8.68,65.22,15.45,68.29,22,71.56c.72.36,1.35-.72.63-1.08C16.08,67.21,9.31,64.14,3,60.38a.63.63,0,0,0-.63,1.08Z"/><path class="cls-3" d="M20.18,40.08a1.88,1.88,0,0,0,0-3.75,1.88,1.88,0,0,0,0,3.75Z"/><path class="cls-3" d="M31.16,38.53a1.88,1.88,0,0,0,0-3.75,1.88,1.88,0,0,0,0,3.75Z"/><path class="cls-3" d="M12.7,60.31a1.88,1.88,0,0,0,0-3.75,1.88,1.88,0,0,0,0,3.75Z"/><path class="cls-3" d="M18.71,71.11a1.88,1.88,0,0,0,0-3.75,1.88,1.88,0,0,0,0,3.75Z"/><path class="cls-3" d="M33.19,11.62a1.88,1.88,0,0,0,0-3.75,1.88,1.88,0,0,0,0,3.75Z"/><path class="cls-3" d="M39.8,21.93a1.88,1.88,0,0,0,0-3.75,1.88,1.88,0,0,0,0,3.75Z"/><path class="cls-3" d="M41.25,10.5a1.88,1.88,0,0,0,0-3.75,1.88,1.88,0,0,0,0,3.75Z"/><path class="cls-3" d="M21.52,49.69a1.88,1.88,0,0,0,0-3.75,1.88,1.88,0,0,0,0,3.75Z"/><path class="cls-3" d="M7.61,65.4a1.88,1.88,0,0,0,0-3.75,1.88,1.88,0,0,0,0,3.75Z"/><path class="cls-4" d="M26.47,33.27a1.88,1.88,0,0,0,0-3.75,1.88,1.88,0,0,0,0,3.75Z"/><path class="cls-4" d="M28.44,47.49a1.88,1.88,0,0,0,0-3.75,1.88,1.88,0,0,0,0,3.75Z"/><path class="cls-4" d="M18.81,66.06a1.88,1.88,0,0,0,0-3.75,1.88,1.88,0,0,0,0,3.75Z"/><path class="cls-4" d="M30.79,18.33a1.88,1.88,0,0,0,0-3.75,1.88,1.88,0,0,0,0,3.75Z"/><path class="cls-4" d="M45.54,16.41a1.88,1.88,0,0,0,0-3.75,1.88,1.88,0,0,0,0,3.75Z"/></g></g></svg>