<svg xmlns="http://www.w3.org/2000/svg" viewBox="0 0 593.76 236.27"><defs><style>.cls-1{fill:#f6921e;}</style></defs><title>orange-wave</title><g id="Layer_2" data-name="Layer 2"><g id="header"><path class="cls-1" d="M251.6,130.45c13.88,5.16,26,14.13,39.54,20.18,35.37,15.8,79.7,9,108.68-16.71,8.49-7.51,15.73-16.47,25-23,26.71-18.82,67.44-15.86,87-42C520.73,57,523,41.53,528.33,27.65S544.89-.2,559.76,0c11,.15,20.4,8.22,26.08,17.58,11.75,19.37,10.3,45.89-3.48,63.87-8.46,11-20.63,18.56-30.68,28.19s-18.36,23.21-15.47,36.82c2.57,12.16,13.54,21.58,14.75,33.95,2,20.63-23.55,33.12-44.26,32.14s-41.9-8.89-61.63-2.5c-14.41,4.68-25.57,16.36-39.61,22.07-43.92,17.87-89.61-27.94-137-25.52-26.72,1.36-52,18.21-78.46,14.09-23.55-3.68-41.43-23.05-63.68-31.64-35-13.49-80.29,3.3-112-19.23-29.84-21.18-7.45-28.94,16.34-28,34.33,1.34,65.6,7.64,99.91.65C169.77,134.46,211.66,115.6,251.6,130.45Z"/></g></g></svg>