<svg xmlns="http://www.w3.org/2000/svg" xmlns:xlink="http://www.w3.org/1999/xlink" viewBox="0 0 427.89 462.64"><defs><style>.cls-1,.cls-5{fill:#fff;}.cls-1,.cls-13,.cls-17,.cls-2,.cls-3,.cls-4{stroke:#1a2e35;}.cls-1,.cls-13,.cls-15,.cls-17,.cls-2,.cls-3,.cls-4{stroke-linecap:round;stroke-linejoin:round;}.cls-15,.cls-2{fill:none;}.cls-3{fill:#757575;}.cls-4{fill:#999;}.cls-6{clip-path:url(#clip-path);}.cls-7{fill-opacity:0.7;opacity:0.2;}.cls-8{clip-path:url(#clip-path-2);}.cls-9{clip-path:url(#clip-path-3);}.cls-10{opacity:0.3;}.cls-11{clip-path:url(#clip-path-4);}.cls-12,.cls-17{fill:#1a2e35;}.cls-13{fill:#5ae4a7;}.cls-14{clip-path:url(#clip-path-5);}.cls-15{stroke:#fff;}.cls-16{clip-path:url(#clip-path-6);}</style><clipPath id="clip-path"><path class="cls-1" d="M353.85,236.82,339.2,290.88A11.54,11.54,0,0,1,328.64,299H245.07c-4.62,0-7.39-3.61-6.18-8.08l14.66-54.06a11.56,11.56,0,0,1,10.56-8.08h83.56C352.29,228.74,355.05,232.37,353.85,236.82Z"/></clipPath><clipPath id="clip-path-2"><path class="cls-1" d="M312,342.11V352H204.34v-9.87a7.26,7.26,0,0,1,7.25-7.25h93.1a7.26,7.26,0,0,1,7,5.35A7,7,0,0,1,312,342.11Z"/></clipPath><clipPath id="clip-path-3"><path class="cls-1" d="M200.85,349.29c-5.16,5.26,19.84,87.81,19.84,87.81-2.73,2.37-6.75,3.49-10.56,4a48.66,48.66,0,0,1-10.54.16s-35.83-86.91-26-108.47,71-31.44,71-31.44l2.61-6.46,31.65-4.45,5.23,38.76s-5.19.5-13,1.51C250.2,333.39,210.33,339.65,200.85,349.29Z"/></clipPath><clipPath id="clip-path-4"><path class="cls-1" d="M183.14,271.12c-5.26-.91,32.14-33.69,32.14-33.69l18,12.14s-30.68,21.6-35.5,22.2S183.14,271.12,183.14,271.12Z"/></clipPath><clipPath id="clip-path-5"><path class="cls-1" d="M215.64,428.33l9.94,26.17s1.66,6.74-28.4,4.61l-16.57-1.42Z"/></clipPath><clipPath id="clip-path-6"><path class="cls-1" d="M248.78,239.62a22,22,0,0,1-1.22-8.89,24.5,24.5,0,0,1,.32-3.06l-2-3.2-2.6-4.13,3-12s19.13,3.69,20.59,9S248.78,239.62,248.78,239.62Z"/></clipPath></defs><title>student</title><g id="Layer_2" data-name="Layer 2"><g id="header"><path class="cls-2" d="M143,136.07c3.24,12.85,1.64-10.81,8-39.76S168.24,79.1,168.24,79.1"/><line class="cls-2" x1="140.97" y1="106.49" x2="160.92" y2="98.31"/><path class="cls-2" d="M177.42,88.51s-11.93,24.65,6.05,35.13"/><path class="cls-2" d="M194.33,81.57S214,92.5,201.68,116.18"/><line class="cls-2" x1="180.84" y1="96.86" x2="194.94" y2="107.16"/><line class="cls-2" x1="191.9" y1="92.32" x2="180.87" y2="109.89"/><path class="cls-2" d="M70.07,250.38s-15.58-2.23-13.85,9"/><path class="cls-2" d="M69.89,257.26c-.58-1.69-7.68-4.62-8.17-.5s7.5,2.66,9.79,1c0,0-4.21,3.29-2.52,4.58"/><path class="cls-2" d="M71.88,263.93a3.35,3.35,0,0,1-4.08.56"/><path class="cls-2" d="M84.29,258.2l-10.1,8.4s5-4.2,8.74-2.18c4.54,2.5-.12,7.09-5.25,2.69"/><path class="cls-2" d="M90.61,261.67s4.94,12.23-11,10.56"/><polyline class="cls-2" points="189.75 10.74 195.77 11.73 195.86 25.44 209.07 1.34 229.91 4.77"/><line class="cls-2" x1="211.35" y1="11.89" x2="220.53" y2="28.07"/><line class="cls-2" x1="222.88" y1="13.79" x2="206.47" y2="25.76"/><path class="cls-2" d="M107.33,35.13c-1.55-2-10.43-.57-8.63,5.73s9.15-2.1,10.55-6.3c0,0-2.45,8,0,8.57"/><path class="cls-2" d="M114.14,28.66l-2,7.1s1-3.55,2.73-3.55c2.15,0,1.37,3.64-1.36,2.84"/><polyline class="cls-2" points="281.77 115.68 277.57 130.82 286.74 140.84"/><line class="cls-2" x1="287.01" y1="121.83" x2="297.5" y2="130.6"/><line class="cls-2" x1="294.23" y1="119.67" x2="289.69" y2="130.81"/><path class="cls-2" d="M301.6,129.38s.09,3.16-1.27,3.57"/><line class="cls-2" x1="302.93" y1="118.35" x2="309.25" y2="123.05"/><line class="cls-2" x1="311.61" y1="114.48" x2="305.36" y2="136.97"/><polyline class="cls-2" points="311.91 106.67 322.06 118.16 317.74 130.72"/><polygon class="cls-2" points="43.44 437.11 58.12 393.41 75.92 413.28 43.44 437.11"/><polyline class="cls-2" points="71.56 416.48 67.81 412.18 71.81 408.71"/><circle class="cls-2" cx="17.92" cy="181.76" r="14.95" transform="translate(-68.19 20.69) rotate(-22.5)"/><circle class="cls-2" cx="34.51" cy="168.67" r="16.59"/><line class="cls-2" x1="20.86" y1="167.1" x2="18.84" y2="174.13"/><line class="cls-2" x1="23.73" y1="167.98" x2="20.86" y2="178.1"/><line class="cls-2" x1="26.72" y1="169.68" x2="23.73" y2="181.12"/><line class="cls-2" x1="30.06" y1="173.04" x2="27.93" y2="183.9"/><line class="cls-2" x1="31.95" y1="176.58" x2="30.06" y2="184.65"/><path class="cls-2" d="M3.64,162.61c-1.31-.41-4.89,3-2.11,5.28s3.48-3.8,2.8-6.14c0,0,1.4,4.39,2.67,3.87"/><path class="cls-2" d="M22.92,143.42l4.76,8.71s-2.38-4.36-.7-6c2.06-2,4.73,2.23,1.34,4"/><line class="cls-2" x1="32.39" y1="104.38" x2="39.15" y2="110.78"/><line class="cls-2" x1="39.15" y1="102.71" x2="33.49" y2="111.17"/><line class="cls-2" x1="45.8" y1="105.14" x2="52.56" y2="102.62"/><line class="cls-2" x1="55.81" y1="95.57" x2="59.92" y2="99.21"/><line class="cls-2" x1="63.07" y1="91.2" x2="57.86" y2="109.07"/><path class="cls-2" d="M358.6,87.6l-.27-13.66h10.32s-5.72,3.15-3.09,10.51,6.87,3.15,6.87,3.15"/><polygon class="cls-2" points="399.11 246.72 410.86 238.64 426.42 239.73 427.39 259.45 415.97 267.62 401.88 266.6 399.11 246.72"/><polyline class="cls-2" points="401.88 266.6 413.25 258.4 427.39 259.45"/><line class="cls-2" x1="413.25" y1="258.4" x2="410.86" y2="238.64"/><polyline class="cls-2" points="399.11 246.72 414.64 248.52 426.42 239.73"/><line class="cls-2" x1="414.64" y1="248.52" x2="415.97" y2="267.62"/><polygon class="cls-2" points="343.25 172.6 342.75 198.9 365.79 188.43 343.25 172.6"/><line class="cls-2" x1="343.25" y1="172.6" x2="354.23" y2="193.53"/><polyline class="cls-2" points="352.47 190.17 355.14 188.88 356.93 192.46"/><line class="cls-2" x1="130.99" y1="192.3" x2="140.51" y2="202.51"/><line class="cls-2" x1="140.59" y1="190.93" x2="132.58" y2="201.89"/><path class="cls-2" d="M144.48,185.58a1.91,1.91,0,0,1,2.69,1.44c.46,2.29-3.31,5.28-3.31,5.28h5.38"/><path class="cls-2" d="M8.07,25.61a27.35,27.35,0,0,1,14.4-22"/><path class="cls-2" d="M29,54.4A27.35,27.35,0,0,1,12.28,42.52"/><path class="cls-2" d="M62.63,30A27.37,27.37,0,0,1,33.17,55.07"/><path class="cls-2" d="M37.53.5A27.37,27.37,0,0,1,62.47,24.06"/><path class="cls-2" d="M47.16,48.85a24.15,24.15,0,0,1-35.88-23"/><path class="cls-2" d="M12.81,19.09A24.15,24.15,0,1,1,53.37,43.86"/><polyline class="cls-2" points="32.98 10.41 35.35 27.78 48.71 23.63"/><path class="cls-2" d="M292.5,62.72A24,24,0,0,1,276.12,21"/><path class="cls-2" d="M315,46.46a23.92,23.92,0,0,1-14.75,14.89"/><path class="cls-2" d="M284.3,16.08a24,24,0,0,1,30.61,14.66"/><path class="cls-2" d="M304.13,21.17A21.18,21.18,0,1,1,276.61,53"/><path class="cls-2" d="M272.3,45.75a21.18,21.18,0,0,1,25.31-27.53"/><polyline class="cls-2" points="284.19 25.63 292.27 38.72 284.9 48.28"/><path class="cls-2" d="M92.65,334.43a19.24,19.24,0,0,1,8.46-15.94"/><path class="cls-2" d="M125.86,347.69a19.25,19.25,0,0,1-32.18-7.06"/><path class="cls-2" d="M111.9,315.18a19.25,19.25,0,0,1,19.25,19.25"/><path class="cls-2" d="M111.9,351.41a17,17,0,0,1-17-17"/><path class="cls-2" d="M98.68,323.78a17,17,0,1,1,21.49,25.49"/><polyline class="cls-2" points="109.27 345.97 111.9 334.43 108.22 325"/><polygon class="cls-3" points="195.61 276.69 243.81 454.5 251.02 454.5 202.82 276.69 195.61 276.69"/><rect class="cls-4" x="212.8" y="404.09" width="91.37" height="7.44"/><path class="cls-3" d="M352.91,236.75l-59,217.75h-7.2l59-217.75c2.18-8-2.81-14.56-11.13-14.56H283.7c-8.3,0-16.85,6.52-19,14.56l-59,217.75h-7.2l59-217.75c3.22-11.89,15.81-21.52,28.12-21.52h50.86C348.77,215.23,356.13,224.86,352.91,236.75Z"/><path class="cls-5" d="M353.85,236.82,339.2,290.88A11.54,11.54,0,0,1,328.64,299H245.07c-4.62,0-7.39-3.61-6.18-8.08l14.66-54.06a11.56,11.56,0,0,1,10.56-8.08h83.56C352.29,228.74,355.05,232.37,353.85,236.82Z"/><g class="cls-6"><path class="cls-7" d="M353.85,236.82,339.2,290.88A11.54,11.54,0,0,1,328.64,299H245.07c-4.62,0-7.39-3.61-6.18-8.08l14.66-54.06a11.56,11.56,0,0,1,10.56-8.08h43.21c18.68,19.18,16.3,54.44,15.08,65.09a11.65,11.65,0,0,0,8.34-7.8L345.4,232a7.3,7.3,0,0,0,.18-3.22h2.09C352.29,228.74,355.05,232.37,353.85,236.82Z"/></g><path class="cls-2" d="M353.85,236.82,339.2,290.88A11.54,11.54,0,0,1,328.64,299H245.07c-4.62,0-7.39-3.61-6.18-8.08l14.66-54.06a11.56,11.56,0,0,1,10.56-8.08h83.56C352.29,228.74,355.05,232.37,353.85,236.82Z"/><polygon class="cls-3" points="304.71 353.68 332.04 454.5 339.25 454.5 311.92 353.68 304.71 353.68"/><path class="cls-5" d="M312,342.11V352H204.34v-9.87a7.26,7.26,0,0,1,7.25-7.25h93.1a7.26,7.26,0,0,1,7,5.35A7,7,0,0,1,312,342.11Z"/><g class="cls-8"><path class="cls-7" d="M311.7,340.21c-3.48,4.09-9.73,8.26-20.48,11.77H204.34v-9.87a7.26,7.26,0,0,1,7.25-7.25h93.1A7.26,7.26,0,0,1,311.7,340.21Z"/></g><path class="cls-2" d="M312,342.11V352H204.34v-9.87a7.26,7.26,0,0,1,7.25-7.25h93.1a7.26,7.26,0,0,1,7,5.35A7,7,0,0,1,312,342.11Z"/><rect class="cls-4" x="199.58" y="348.95" width="118.06" height="9.25" rx="1.71"/><path class="cls-5" d="M200.85,349.29c-5.16,5.26,19.84,87.81,19.84,87.81-2.73,2.37-6.75,3.49-10.56,4a48.66,48.66,0,0,1-10.54.16s-35.83-86.91-26-108.47,71-31.44,71-31.44l2.61-6.46,31.65-4.45,5.23,38.76s-5.19.5-13,1.51C250.2,333.39,210.33,339.65,200.85,349.29Z"/><g class="cls-9"><path class="cls-10" d="M220.69,437.1c-2.73,2.37-6.75,3.49-10.56,4-6.95-25.85-24.65-94.82-17.93-103.26,8.27-10.41,49.19-19.88,49.19-19.88.17-5.31,14.52-10.1,14.52-10.1l15.24,22.85c-20.95,2.69-60.82,8.95-70.3,18.59C195.69,354.55,220.69,437.1,220.69,437.1Z"/></g><path class="cls-2" d="M200.85,349.29c-5.16,5.26,19.84,87.81,19.84,87.81-2.73,2.37-6.75,3.49-10.56,4a48.66,48.66,0,0,1-10.54.16s-35.83-86.91-26-108.47,71-31.44,71-31.44l2.61-6.46,31.65-4.45,5.23,38.76s-5.19.5-13,1.51C250.2,333.39,210.33,339.65,200.85,349.29Z"/><path class="cls-5" d="M183.14,271.12c-5.26-.91,32.14-33.69,32.14-33.69l18,12.14s-30.68,21.6-35.5,22.2S183.14,271.12,183.14,271.12Z"/><g class="cls-11"><path class="cls-7" d="M183.14,271.12c-5.26-.91,32.14-33.69,32.14-33.69l18,12.14s-30.68,21.6-35.5,22.2S183.14,271.12,183.14,271.12Z"/></g><path class="cls-2" d="M183.14,271.12c-5.26-.91,32.14-33.69,32.14-33.69l18,12.14s-30.68,21.6-35.5,22.2S183.14,271.12,183.14,271.12Z"/><path class="cls-1" d="M189.74,257.33s7.83,1.95,10.23,3.62,1.72,7.57,1.72,7.57S191.22,265.53,189.74,257.33Z"/><polygon class="cls-12" points="184.71 242.32 199.28 270.26 201 270.26 187.16 240.94 184.71 242.32"/><path class="cls-1" d="M197.84,262.52S188.65,256,186.41,256s-9,8-9,11.94,14.69,6.2,17.57,2.81c1.42-1.68-1.42-5.75-1.42-5.75s4.27,4.42,5.5,5.09,3.47-.21,3.47-.21S199.48,265,197.84,262.52Z"/><path class="cls-2" d="M193.57,271.69s-3.49-4.54-7.67-6.7"/><path class="cls-2" d="M193.57,265s-3.18-2.78-5.32-3.39"/><path class="cls-2" d="M183.56,268.52a55.8,55.8,0,0,1,6.42,3.86"/><path class="cls-13" d="M227,223.09c-4.71,3.29-25.83,25-25.83,25s9.9,11.26,18.57,12.89l23.52-11.41Z"/><path class="cls-1" d="M227,223.09c-4.71,3.29-25.83,25-25.83,25s9.9,11.26,18.57,12.89l23.52-11.41Z"/><path class="cls-5" d="M215.64,428.33l9.94,26.17s1.66,6.74-28.4,4.61l-16.57-1.42Z"/><g class="cls-14"><path class="cls-10" d="M215.64,428.33l9.94,26.17s1.66,6.74-28.4,4.61l-16.57-1.42Z"/></g><path class="cls-2" d="M215.64,428.33l9.94,26.17s1.66,6.74-28.4,4.61l-16.57-1.42Z"/><path class="cls-1" d="M211.85,440.88s2.13,10.18,0,17.75c0,0-31.72,5-38.82,3.08s-11.4-5.43-11.62-7.21c0,0,.26-4.86,7.36-6.28s21.25-2.37,26.84-10.42S211.85,440.88,211.85,440.88Z"/><path class="cls-1" d="M253.72,293.87c10.14-14.46,56.73,2.94,56.73,2.94s4.45,34.8-14.11,44.08S251,349.68,243.79,357.2l-29.42,86.86s-10.56,4.42-25.93-2.54c0,0,18.68-65.59,24.16-88.88C218,329.6,253.12,314,253.12,314a21.26,21.26,0,0,1-4-7.27"/><path class="cls-15" d="M300.9,327.13a52.24,52.24,0,0,1-4.7,3.69"/><path class="cls-15" d="M304.71,297.66c3.8,8.25,4.1,18.74-1.23,26.38"/><path class="cls-15" d="M294.1,299s-1,6.36,1.86,8.89,11.54,3.81,11.54,3.81"/><path class="cls-15" d="M255.89,299.27s.4,6.35-2.17,6-2.7,2.54-2.7,2.54"/><path class="cls-13" d="M227.62,228a21.9,21.9,0,0,1-.62-4.88s14.4-12.11,32.85-12c22,.07,35.47,7,40.87,16.62,8.54,15.22,9.73,69.14,9.73,69.14s-55.25,8.52-63.17-1.93c-1.38-1.81-.32-14.66-.32-14.66s-6.19-16.22-7.5-28.81c0,0-2.38-3.21-5.06-7.78a75.41,75.41,0,0,1-5.09-10.3"/><path class="cls-1" d="M227.62,228a21.9,21.9,0,0,1-.62-4.88s14.4-12.11,32.85-12c22,.07,35.47,7,40.87,16.62,8.54,15.22,9.73,69.14,9.73,69.14s-55.25,8.52-63.17-1.93c-1.38-1.81-.32-14.66-.32-14.66s-6.19-16.22-7.5-28.81c0,0-2.38-3.21-5.06-7.78a75.41,75.41,0,0,1-5.09-10.3"/><path class="cls-2" d="M248.78,240.94s8.43,32.73,7.13,39.92a13.29,13.29,0,0,0,1.23,7.27,7.65,7.65,0,0,0-1.23,8.83"/><path class="cls-2" d="M271.16,268a8.26,8.26,0,0,1-4.24-1.34l-2.5-11a46.47,46.47,0,0,0,14.82-1l2.68,12a39.69,39.69,0,0,1-4.59,1"/><path class="cls-13" d="M242.78,245.19s-7.13-30.59,10.94-34.14,21.84,4.91,20.77,10.64c-1.42,7.65-16.44,26.4-16.44,26.4l-9.27-7.15Z"/><path class="cls-1" d="M242.78,245.19s-7.13-30.59,10.94-34.14,21.84,4.91,20.77,10.64c-1.42,7.65-16.44,26.4-16.44,26.4l-9.27-7.15Z"/><path class="cls-15" d="M219,339.62s11.7-13.52,38.12-23.72c0,0-6.85-2.1-8.36-4.94"/><line class="cls-15" x1="205.26" y1="381.02" x2="194.55" y2="419.86"/><path class="cls-13" d="M287.92,269.07s4.81,8.08,24.5,7.33A30.59,30.59,0,0,0,299,268.06C290.91,265.87,287.92,269.07,287.92,269.07Z"/><path class="cls-1" d="M211.45,272.32s4.57-7.09,8.77-8.51,16.49-1.55,18.38-1.6,35.72,8.55,51.58,13.83l-1.38-26.47,21.32,1.67s-.86,32.33-4.18,40.88-8.06,6.47-16.16,3c-31.88-13.73-50.55-23.3-52.28-22.78S211.45,272.32,211.45,272.32Z"/><path class="cls-13" d="M283.47,234.18a20.08,20.08,0,0,0-.53,6.72c.95,8.28,5,28.17,5,28.17s19.88,2.84,24.5,7.33c0,0,3.27-26.35-3.4-39.69s-13.58-14.84-13.58-14.84c-4.37-1.08-8.33,3-10.6,8.22"/><path class="cls-1" d="M283.47,234.18a20.08,20.08,0,0,0-.53,6.72c.95,8.28,5,28.17,5,28.17s19.88,2.84,24.5,7.33c0,0,3.27-26.35-3.4-39.69s-13.58-14.84-13.58-14.84c-4.37-1.08-8.33,3-10.6,8.22"/><path class="cls-2" d="M225.07,244.41a26.27,26.27,0,0,0,10.18,5.16"/><path class="cls-2" d="M287.92,244.41S295.14,258,304.17,261"/><path class="cls-15" d="M241.4,349s1.32,1,1.86,4.63"/><path class="cls-15" d="M236.47,353.58a8.38,8.38,0,0,1,5.86,3.38"/><path class="cls-15" d="M196.9,339.62s3.83,1.93,3,7.42"/><path class="cls-15" d="M192.86,344.34s5.23,3.1,5.6,5.88"/><path class="cls-15" d="M253.47,310.85s11.64,1.64,14.25,0"/><path class="cls-5" d="M248.78,239.62a22,22,0,0,1-1.22-8.89,24.5,24.5,0,0,1,.32-3.06l-2-3.2-2.6-4.13,3-12s19.13,3.69,20.59,9S248.78,239.62,248.78,239.62Z"/><g class="cls-16"><path class="cls-7" d="M247.56,230.73a24.5,24.5,0,0,1,.32-3.06l-2-3.2c3.31-.66,6.94-2.13,9.34-5.24A11.76,11.76,0,0,1,247.56,230.73Z"/></g><path class="cls-2" d="M248.78,239.62a22,22,0,0,1-1.22-8.89,24.5,24.5,0,0,1,.32-3.06l-2-3.2-2.6-4.13,3-12s19.13,3.69,20.59,9S248.78,239.62,248.78,239.62Z"/><path class="cls-1" d="M260.79,209.38c5.92-15.61,2-42-26.71-37-16.91,3-18.88,23.36-13.23,32.4s-.36,9.34,8.11,16c3.43,2.72,6.2,7.33,10.29,7.62,4.87.34,11.11-4.27,15.76-9.24"/><path class="cls-2" d="M232.49,204.81s4.24-3.84,9.27-2.25"/><path class="cls-2" d="M224.55,204.81a7.47,7.47,0,0,0-5.48-3.71"/><path class="cls-1" d="M227.35,210.36s-.6,3.11-1.4,6.25,5,1.42,4.76.93"/><path class="cls-2" d="M233.73,221.53a12.72,12.72,0,0,0,6.31-4.14"/><path class="cls-12" d="M238.38,208.75a1.31,1.31,0,1,1-2.46.68,1.32,1.32,0,1,1,2.46-.68Z"/><path class="cls-12" d="M225.58,208.49c.23.87.06,1.67-.39,1.8s-1-.49-1.26-1.36-.06-1.67.4-1.79S225.34,207.62,225.58,208.49Z"/><path class="cls-17" d="M243.08,188.79s-4.46,11.65-15.46,11.38c0,0,3.81-2.9,4.87-5.69,0,0-8.47,8.39-16.94,4.13s-4.35-24.06,8.68-31.9S250.49,161,255,168.45c0,0,9.11-.84,13.11,12.53,3.57,11.94-2.15,30.1-7.77,30.31-8.7.33-10.45-9.12-10.45-9.12A24.87,24.87,0,0,1,243.08,188.79Z"/><path class="cls-1" d="M252.61,209.44s-.26-11,6-9.66,1.72,14-3,13.89"/><rect class="cls-1" x="134.85" y="271.12" width="100.4" height="7.26" rx="1.63"/></g></g></svg>