<svg xmlns="http://www.w3.org/2000/svg" viewBox="0 0 72.68 71.51"><defs><style>.cls-1{fill:#17437a;}.cls-1,.cls-2{fill-rule:evenodd;}.cls-2,.cls-4{fill:#fda931;}.cls-3{fill:#6eccd4;}</style></defs><title>tech</title><g id="Layer_2" data-name="Layer 2"><g id="Layer_3" data-name="Layer 3"><path class="cls-1" d="M44.56,27.31C46.45,35.78,46.94,44.4,47.18,53c.11,3.74-.07,7.5-.21,11.25-.14,3.43-2.49,6-5.91,7-2.68.8-5.92-1.14-7.39-3.5a46.52,46.52,0,0,1-4.23-8.13,105.2,105.2,0,0,1-5.76-21.43c-.31-2-.44-4.1-.59-6.16-.24-3.35-.52-6.7-.62-10.06a102.61,102.61,0,0,1,0-11.23c.37-4.67,3-8.17,7.28-10.52,1.56-.86,5,.21,6,2.06a58.07,58.07,0,0,1,4.37,8.84c1.57,4.45,2.65,9.08,3.92,13.63C44.29,25.64,44.4,26.48,44.56,27.31Zm-2.37-3.58c-1.1-3.58-2.08-7.2-3.35-10.72-1-2.86-2.36-5.63-3.65-8.39a6.62,6.62,0,0,0-1.61-1.94,2.72,2.72,0,0,0-3.07-.62C28.68,3.13,26.82,4.3,25.87,6.3c-1.08,2.25-2,4.52-1.71,7.08a22.58,22.58,0,0,1,0,4.35c-.52,6.61.77,13.11.86,19.69a12.38,12.38,0,0,0,.28,1.81,132,132,0,0,0,3.58,14A57.17,57.17,0,0,0,34,65,11.4,11.4,0,0,0,36,67.77a4.87,4.87,0,0,0,7,.17,5.86,5.86,0,0,0,2-4.54c.11-5.2.26-10.4.1-15.59A117.09,117.09,0,0,0,42.19,23.73Z"/><path class="cls-1" d="M32,23.54c8.61,2.54,16.65,6.32,24.58,10.31,3.43,1.73,6.73,3.7,10,5.64A7.2,7.2,0,0,1,70,47.81c-.66,2.62-4.08,4.37-7,4.45a53,53,0,0,1-9.52-.43,118.35,118.35,0,0,1-22.31-5.61c-2-.74-3.93-1.63-5.86-2.51-3.15-1.42-6.32-2.81-9.41-4.36A111.86,111.86,0,0,1,5.76,33.89,12.24,12.24,0,0,1,0,22.74c0-1.71,2.76-4,5-4a65.69,65.69,0,0,1,10.23.66c4.83.86,9.56,2.2,14.33,3.37C30.36,23,31.18,23.28,32,23.54Zm-4.46.23C23.76,23,20,22,16.16,21.35c-3.12-.53-6.3-.77-9.46-1a7.44,7.44,0,0,0-2.58.4C3,21.05,2,21.89,2,23c0,2,.13,4.16,1.44,5.92,1.48,2,3.05,3.85,5.52,4.85a24.29,24.29,0,0,1,3.94,2.08c5.7,3.64,12.24,5.72,18.22,8.84a13,13,0,0,0,1.78.65,148.46,148.46,0,0,0,14.46,3.81,64.27,64.27,0,0,0,13.25,1.54,12.13,12.13,0,0,0,3.55-.38c3-.79,4.34-2.89,3.78-5.75a5.86,5.86,0,0,0-3.06-3.9C60.22,38,55.6,35.37,50.84,33A128.57,128.57,0,0,0,27.55,23.77Z"/><path class="cls-1" d="M35.78,21.53c4-2.87,7.86-5.89,12-8.51A65.45,65.45,0,0,1,57,8.56c2-.86,5.43.27,6.1,1.85,1.82,4.3,1.64,8.6-1.13,12.5a114.3,114.3,0,0,1-7.34,8.87c-2.28,2.59-4.69,5.07-7.08,7.58-1.46,1.54-2.91,3.09-4.48,4.53A118.22,118.22,0,0,1,24.53,57.48a52.66,52.66,0,0,1-8.66,4c-2.7,1-6.53.68-8.12-1.5a7.19,7.19,0,0,1-.06-9c2.34-3,4.65-6.11,7.18-9,5.85-6.69,11.87-13.21,18.9-18.81C34.44,22.64,35.07,22,35.78,21.53ZM19.88,39c-3.52,4-6.81,8.19-10.12,12.36a5.84,5.84,0,0,0-1.37,4.76C8.94,59,11,60.44,14.06,60.06a12.49,12.49,0,0,0,3.43-1,64.45,64.45,0,0,0,11.69-6.41,148.19,148.19,0,0,0,12-9,13,13,0,0,0,1.4-1.26c4.37-5.15,9.64-9.54,13.55-15.06A24.48,24.48,0,0,1,59,24c1.91-1.86,2.67-4.18,3.29-6.58.55-2.12-.15-4.12-.89-6a2.64,2.64,0,0,0-2.83-1.28,7.22,7.22,0,0,0-2.54.6c-2.83,1.44-5.69,2.86-8.37,4.53-3.3,2.05-6.44,4.34-9.65,6.52A127.84,127.84,0,0,0,19.88,39Z"/><path class="cls-1" d="M36,42.75c-4.69.79-7.6-3.34-7.27-7.2.25-3,2.07-4.93,4.66-6.29a5.15,5.15,0,0,1,6.1,1.11,12.12,12.12,0,0,1,2,3.08C43.33,37.69,40.77,42,36,42.75Zm-5.22-5a3.63,3.63,0,0,0,2.9,2.85A5.29,5.29,0,0,0,38.88,39,4.52,4.52,0,0,0,40,34.24c-.62-2.15-2.84-3.76-4.66-3.48C32.6,31.18,30.16,34.59,30.79,37.79Z"/><path class="cls-2" d="M30.79,37.79c-.63-3.2,1.81-6.61,4.51-7,1.82-.28,4,1.33,4.66,3.48A4.52,4.52,0,0,1,38.88,39a5.29,5.29,0,0,1-5.19,1.69A3.63,3.63,0,0,1,30.79,37.79Z"/><path class="cls-3" d="M10.31,24.14c4.83,0,4.84-7.5,0-7.5s-4.83,7.5,0,7.5Z"/><path class="cls-3" d="M20.66,63.21c4.83,0,4.84-7.5,0-7.5s-4.83,7.5,0,7.5Z"/><path class="cls-3" d="M62.65,23.42c4.82,0,4.83-7.5,0-7.5s-4.84,7.5,0,7.5Z"/><path class="cls-4" d="M26.31,7.77c4.82,0,4.83-7.5,0-7.5s-4.84,7.5,0,7.5Z"/><path class="cls-4" d="M45.9,69.83c4.83,0,4.84-7.5,0-7.5s-4.83,7.5,0,7.5Z"/><path class="cls-4" d="M69.06,51c4.83,0,4.84-7.5,0-7.5s-4.83,7.5,0,7.5Z"/></g></g></svg>